<svg xmlns="http://www.w3.org/2000/svg" xmlns:xlink="http://www.w3.org/1999/xlink" width="65" zoomAndPan="magnify" viewBox="0 0 48.75 48.749998" height="65" preserveAspectRatio="xMidYMid meet" version="1.0"><defs><clipPath id="9f5a021d22"><path d="M 8.152344 8.144531 L 40.402344 8.144531 L 40.402344 40.394531 L 8.152344 40.394531 Z M 8.152344 8.144531 " clip-rule="nonzero"/></clipPath><clipPath id="91c7132edb"><path d="M 26.742188 14.226562 L 37.242188 14.226562 L 37.242188 24.726562 L 26.742188 24.726562 Z M 26.742188 14.226562 " clip-rule="nonzero"/></clipPath><clipPath id="7e4ba5575a"><path d="M 31 16.339844 L 32.5 16.339844 L 32.5 22.339844 L 31 22.339844 Z M 31 16.339844 " clip-rule="nonzero"/></clipPath><clipPath id="06a86231c5"><path d="M 28.761719 18.449219 L 34.761719 18.449219 L 34.761719 19.949219 L 28.761719 19.949219 Z M 28.761719 18.449219 " clip-rule="nonzero"/></clipPath></defs><g clip-path="url(#9f5a021d22)"><path fill="#f4ece0" d="M 24.277344 8.144531 C 15.371094 8.144531 8.152344 15.363281 8.152344 24.269531 C 8.152344 33.175781 15.371094 40.394531 24.277344 40.394531 C 33.183594 40.394531 40.402344 33.175781 40.402344 24.269531 C 40.402344 15.363281 33.183594 8.144531 24.277344 8.144531 " fill-opacity="1" fill-rule="nonzero"/></g><path fill="#b4aca4" d="M 14.847656 16.726562 C 14.398438 16.726562 14.035156 17.089844 14.035156 17.539062 C 14.035156 17.984375 14.398438 18.347656 14.847656 18.347656 Z M 16.652344 17.539062 L 17.449219 17.378906 C 17.375 17 17.039062 16.726562 16.652344 16.726562 Z M 16.21875 19.488281 C 16.304688 19.925781 16.734375 20.210938 17.175781 20.121094 C 17.613281 20.035156 17.898438 19.605469 17.8125 19.167969 Z M 18.457031 25.679688 C 18.007812 25.679688 17.644531 26.042969 17.644531 26.488281 C 17.644531 26.9375 18.007812 27.300781 18.457031 27.300781 Z M 27.484375 26.488281 L 27.484375 27.300781 C 27.792969 27.300781 28.074219 27.128906 28.210938 26.855469 Z M 31.097656 19.328125 L 31.820312 19.691406 C 31.949219 19.441406 31.933594 19.140625 31.789062 18.902344 C 31.640625 18.664062 31.378906 18.519531 31.097656 18.519531 Z M 17.015625 18.519531 C 16.566406 18.519531 16.203125 18.878906 16.203125 19.328125 C 16.203125 19.773438 16.566406 20.136719 17.015625 20.136719 Z M 17.660156 26.648438 C 17.75 27.089844 18.179688 27.371094 18.617188 27.285156 C 19.058594 27.195312 19.34375 26.769531 19.253906 26.332031 Z M 17.8125 19.167969 C 17.722656 18.730469 17.292969 18.445312 16.855469 18.535156 C 16.414062 18.621094 16.128906 19.050781 16.21875 19.488281 Z M 19.03125 27.0625 C 19.347656 26.75 19.351562 26.234375 19.035156 25.917969 C 18.71875 25.601562 18.203125 25.601562 17.886719 25.914062 Z M 16.386719 28.542969 L 15.816406 27.96875 Z M 27.484375 30.882812 C 27.933594 30.882812 28.296875 30.519531 28.296875 30.070312 C 28.296875 29.625 27.933594 29.261719 27.484375 29.261719 Z M 27.484375 30.070312 L 26.671875 30.070312 C 26.671875 30.285156 26.757812 30.492188 26.910156 30.644531 Z M 29.289062 31.863281 L 28.71875 32.4375 C 28.871094 32.585938 29.074219 32.671875 29.289062 32.671875 Z M 20.265625 31.863281 L 19.5625 31.453125 C 19.488281 31.578125 19.453125 31.71875 19.453125 31.863281 Z M 20.265625 33.652344 L 19.453125 33.652344 C 19.453125 33.792969 19.488281 33.933594 19.5625 34.058594 Z M 14.847656 18.347656 L 16.652344 18.347656 L 16.652344 16.726562 L 14.847656 16.726562 Z M 15.855469 17.695312 L 16.21875 19.488281 L 17.8125 19.167969 L 17.449219 17.378906 Z M 18.457031 27.300781 L 27.484375 27.300781 L 27.484375 25.679688 L 18.457031 25.679688 Z M 28.210938 26.855469 L 31.820312 19.691406 L 30.371094 18.964844 L 26.757812 26.125 Z M 31.097656 18.519531 L 17.015625 18.519531 L 17.015625 20.136719 L 31.097656 20.136719 Z M 19.253906 26.332031 L 17.8125 19.167969 L 16.21875 19.488281 L 17.660156 26.648438 Z M 17.886719 25.914062 L 15.816406 27.96875 L 16.960938 29.117188 L 19.03125 27.0625 Z M 15.816406 27.96875 C 14.726562 29.046875 15.507812 30.882812 17.027344 30.882812 L 17.027344 29.261719 C 16.992188 29.261719 16.980469 29.253906 16.972656 29.25 C 16.964844 29.242188 16.953125 29.226562 16.941406 29.207031 C 16.933594 29.1875 16.933594 29.167969 16.9375 29.160156 C 16.9375 29.152344 16.941406 29.140625 16.960938 29.117188 Z M 17.027344 30.882812 L 27.484375 30.882812 L 27.484375 29.261719 L 17.027344 29.261719 Z M 28.296875 30.070312 C 28.296875 29.535156 28.738281 29.089844 29.289062 29.089844 L 29.289062 27.46875 C 27.847656 27.46875 26.671875 28.628906 26.671875 30.070312 Z M 29.289062 29.089844 C 29.84375 29.089844 30.285156 29.535156 30.285156 30.070312 L 31.90625 30.070312 C 31.90625 28.628906 30.730469 27.46875 29.289062 27.46875 Z M 30.285156 30.070312 C 30.285156 30.609375 29.84375 31.050781 29.289062 31.050781 L 29.289062 32.671875 C 30.730469 32.671875 31.90625 31.511719 31.90625 30.070312 Z M 29.863281 31.289062 L 28.058594 29.496094 L 26.910156 30.644531 L 28.71875 32.4375 Z M 20.964844 32.269531 C 21.191406 31.882812 21.648438 31.695312 22.085938 31.808594 L 22.503906 30.246094 C 21.363281 29.941406 20.15625 30.433594 19.5625 31.453125 Z M 22.085938 31.808594 C 22.519531 31.925781 22.820312 32.316406 22.820312 32.757812 L 24.445312 32.757812 C 24.445312 31.578125 23.644531 30.546875 22.503906 30.246094 Z M 22.820312 32.757812 C 22.820312 33.199219 22.519531 33.585938 22.085938 33.703125 L 22.503906 35.269531 C 23.644531 34.964844 24.445312 33.9375 24.445312 32.757812 Z M 22.085938 33.703125 C 21.648438 33.820312 21.191406 33.628906 20.964844 33.246094 L 19.5625 34.058594 C 20.15625 35.078125 21.363281 35.574219 22.503906 35.269531 Z M 21.074219 33.652344 L 21.074219 31.863281 L 19.453125 31.863281 L 19.453125 33.652344 Z M 21.074219 33.652344 " fill-opacity="1" fill-rule="nonzero"/><g clip-path="url(#91c7132edb)"><path fill="#b4aca4" d="M 31.992188 14.226562 C 29.089844 14.226562 26.742188 16.578125 26.742188 19.476562 C 26.742188 22.378906 29.089844 24.726562 31.992188 24.726562 C 34.890625 24.726562 37.242188 22.378906 37.242188 19.476562 C 37.242188 16.578125 34.890625 14.226562 31.992188 14.226562 " fill-opacity="1" fill-rule="nonzero"/></g><g clip-path="url(#7e4ba5575a)"><path fill="#f4ece0" d="M 31.75 16.339844 C 32.164062 16.339844 32.5 16.722656 32.5 17.195312 L 32.5 21.484375 C 32.5 21.957031 32.164062 22.339844 31.75 22.339844 C 31.335938 22.339844 31 21.957031 31 21.484375 L 31 17.195312 C 31 16.722656 31.335938 16.339844 31.75 16.339844 " fill-opacity="1" fill-rule="nonzero"/></g><g clip-path="url(#06a86231c5)"><path fill="#f4ece0" d="M 34.761719 19.199219 C 34.761719 19.613281 34.378906 19.949219 33.90625 19.949219 L 29.621094 19.949219 C 29.144531 19.949219 28.761719 19.613281 28.761719 19.199219 C 28.761719 18.785156 29.144531 18.449219 29.621094 18.449219 L 33.90625 18.449219 C 34.378906 18.449219 34.761719 18.785156 34.761719 19.199219 " fill-opacity="1" fill-rule="nonzero"/></g></svg>