<svg xmlns="http://www.w3.org/2000/svg" xmlns:xlink="http://www.w3.org/1999/xlink" width="65" zoomAndPan="magnify" viewBox="0 0 48.75 48.749998" height="65" preserveAspectRatio="xMidYMid meet" version="1.0"><defs><clipPath id="20912e8f94"><path d="M 9.597656 14.875 L 38.847656 14.875 L 38.847656 33.625 L 9.597656 33.625 Z M 9.597656 14.875 " clip-rule="nonzero"/></clipPath></defs><g clip-path="url(#20912e8f94)"><path fill="#b4aca4" d="M 37.359375 14.875 L 11.085938 14.875 C 10.273438 14.875 9.613281 15.53125 9.613281 16.339844 L 9.613281 32.097656 C 9.613281 32.90625 10.273438 33.5625 11.085938 33.5625 L 37.359375 33.5625 C 38.171875 33.5625 38.832031 32.90625 38.832031 32.097656 L 38.832031 16.339844 C 38.832031 15.53125 38.171875 14.875 37.359375 14.875 Z M 24.203125 15.972656 L 36.804688 15.972656 L 24.222656 25.683594 L 11.636719 15.972656 Z M 37.359375 32.464844 C 37.5625 32.464844 37.726562 32.300781 37.726562 32.097656 L 37.726562 16.75 L 27.855469 24.367188 L 34.699219 29.652344 L 34.691406 29.660156 C 34.800781 29.765625 34.867188 29.917969 34.867188 30.082031 C 34.867188 30.414062 34.597656 30.683594 34.265625 30.683594 C 34.097656 30.683594 33.949219 30.617188 33.839844 30.507812 L 26.890625 25.113281 L 24.804688 26.71875 C 24.648438 26.855469 24.445312 26.941406 24.222656 26.941406 C 23.996094 26.941406 23.792969 26.855469 23.636719 26.71875 L 21.550781 25.113281 L 14.601562 30.507812 C 14.492188 30.617188 14.34375 30.683594 14.175781 30.683594 C 13.84375 30.683594 13.574219 30.414062 13.574219 30.082031 C 13.574219 29.917969 13.640625 29.765625 13.75 29.660156 L 13.746094 29.652344 L 20.585938 24.367188 L 10.714844 16.75 L 10.714844 32.097656 C 10.714844 32.300781 10.882812 32.464844 11.085938 32.464844 Z M 37.359375 32.464844 " fill-opacity="1" fill-rule="evenodd"/></g></svg>