<svg xmlns="http://www.w3.org/2000/svg" xmlns:xlink="http://www.w3.org/1999/xlink" width="65" zoomAndPan="magnify" viewBox="0 0 48.75 48.749998" height="65" preserveAspectRatio="xMidYMid meet" version="1.0"><defs><clipPath id="955acd28ad"><path d="M 27 11.082031 L 38 11.082031 L 38 21 L 27 21 Z M 27 11.082031 " clip-rule="nonzero"/></clipPath></defs><path fill="#000000" d="M 13.496094 13.03125 C 12.957031 13.03125 12.519531 13.464844 12.519531 14.003906 C 12.519531 14.539062 12.957031 14.976562 13.496094 14.976562 Z M 15.664062 14.003906 L 16.617188 13.8125 C 16.527344 13.355469 16.128906 13.03125 15.664062 13.03125 Z M 15.140625 16.34375 C 15.246094 16.871094 15.761719 17.210938 16.289062 17.105469 C 16.816406 17 17.160156 16.484375 17.050781 15.960938 Z M 17.828125 23.773438 C 17.292969 23.773438 16.855469 24.210938 16.855469 24.746094 C 16.855469 25.28125 17.292969 25.71875 17.828125 25.71875 Z M 28.664062 24.746094 L 28.664062 25.71875 C 29.03125 25.71875 29.367188 25.511719 29.535156 25.183594 Z M 32.996094 16.152344 L 33.867188 16.589844 C 34.019531 16.285156 34.003906 15.929688 33.828125 15.640625 C 33.648438 15.355469 33.335938 15.179688 32.996094 15.179688 Z M 16.097656 15.179688 C 15.558594 15.179688 15.121094 15.613281 15.121094 16.152344 C 15.121094 16.6875 15.558594 17.125 16.097656 17.125 Z M 16.875 24.9375 C 16.980469 25.464844 17.492188 25.804688 18.023438 25.699219 C 18.550781 25.59375 18.890625 25.082031 18.785156 24.554688 Z M 17.050781 15.960938 C 16.945312 15.433594 16.433594 15.09375 15.902344 15.199219 C 15.375 15.304688 15.035156 15.816406 15.140625 16.34375 Z M 18.515625 25.433594 C 18.898438 25.054688 18.902344 24.441406 18.519531 24.058594 C 18.140625 23.679688 17.523438 23.679688 17.140625 24.058594 Z M 15.347656 27.210938 L 14.65625 26.519531 Z M 28.664062 30.015625 C 29.203125 30.015625 29.636719 29.578125 29.636719 29.042969 C 29.636719 28.507812 29.203125 28.070312 28.664062 28.070312 Z M 28.664062 29.042969 L 27.6875 29.042969 C 27.6875 29.300781 27.792969 29.550781 27.976562 29.730469 Z M 30.828125 31.191406 L 30.140625 31.882812 C 30.324219 32.0625 30.570312 32.164062 30.828125 32.164062 Z M 19.996094 31.191406 L 19.152344 30.703125 C 19.066406 30.851562 19.019531 31.019531 19.019531 31.191406 Z M 19.996094 33.339844 L 19.019531 33.339844 C 19.019531 33.511719 19.066406 33.679688 19.152344 33.828125 Z M 13.496094 14.976562 L 15.664062 14.976562 L 15.664062 13.03125 L 13.496094 13.03125 Z M 14.707031 14.195312 L 15.140625 16.34375 L 17.050781 15.960938 L 16.617188 13.8125 Z M 17.828125 25.71875 L 28.664062 25.71875 L 28.664062 23.773438 L 17.828125 23.773438 Z M 29.535156 25.183594 L 33.867188 16.589844 L 32.125 15.714844 L 27.792969 24.308594 Z M 32.996094 15.179688 L 16.097656 15.179688 L 16.097656 17.125 L 32.996094 17.125 Z M 18.785156 24.554688 L 17.050781 15.960938 L 15.140625 16.34375 L 16.875 24.9375 Z M 17.140625 24.058594 L 14.65625 26.519531 L 16.035156 27.898438 L 18.515625 25.433594 Z M 14.65625 26.519531 C 13.351562 27.816406 14.289062 30.015625 16.113281 30.015625 L 16.113281 28.070312 C 16.074219 28.070312 16.054688 28.0625 16.046875 28.054688 C 16.035156 28.046875 16.019531 28.03125 16.011719 28.007812 C 16 27.980469 16 27.960938 16.003906 27.949219 C 16.003906 27.941406 16.007812 27.925781 16.035156 27.898438 Z M 16.113281 30.015625 L 28.664062 30.015625 L 28.664062 28.070312 L 16.113281 28.070312 Z M 29.636719 29.042969 C 29.636719 28.398438 30.167969 27.867188 30.828125 27.867188 L 30.828125 25.921875 C 29.097656 25.921875 27.6875 27.316406 27.6875 29.042969 Z M 30.828125 27.867188 C 31.492188 27.867188 32.019531 28.398438 32.019531 29.042969 L 33.972656 29.042969 C 33.972656 27.316406 32.558594 25.921875 30.828125 25.921875 Z M 32.019531 29.042969 C 32.019531 29.6875 31.492188 30.21875 30.828125 30.21875 L 30.828125 32.164062 C 32.558594 32.164062 33.972656 30.773438 33.972656 29.042969 Z M 31.515625 30.503906 L 29.351562 28.355469 L 27.976562 29.730469 L 30.140625 31.882812 Z M 20.839844 31.679688 C 21.109375 31.21875 21.660156 30.992188 22.183594 31.128906 L 22.683594 29.25 C 21.316406 28.886719 19.867188 29.480469 19.152344 30.703125 Z M 22.183594 31.128906 C 22.707031 31.269531 23.066406 31.738281 23.066406 32.265625 L 25.015625 32.265625 C 25.015625 30.851562 24.054688 29.617188 22.683594 29.25 Z M 23.066406 32.265625 C 23.066406 32.796875 22.707031 33.261719 22.183594 33.402344 L 22.683594 35.28125 C 24.054688 34.917969 25.015625 33.683594 25.015625 32.265625 Z M 22.183594 33.402344 C 21.660156 33.542969 21.109375 33.3125 20.839844 32.851562 L 19.152344 33.828125 C 19.867188 35.050781 21.316406 35.644531 22.683594 35.28125 Z M 20.972656 33.339844 L 20.972656 31.191406 L 19.019531 31.191406 L 19.019531 33.339844 Z M 20.972656 33.339844 " fill-opacity="1" fill-rule="nonzero"/><g clip-path="url(#955acd28ad)"><path fill="#f4ece0" d="M 37.382812 15.945312 C 37.382812 16.265625 37.351562 16.582031 37.289062 16.894531 C 37.226562 17.207031 37.136719 17.511719 37.011719 17.808594 C 36.890625 18.101562 36.738281 18.382812 36.5625 18.648438 C 36.382812 18.914062 36.183594 19.15625 35.957031 19.382812 C 35.730469 19.609375 35.484375 19.808594 35.21875 19.988281 C 34.953125 20.164062 34.671875 20.316406 34.375 20.4375 C 34.078125 20.558594 33.773438 20.652344 33.460938 20.714844 C 33.144531 20.777344 32.828125 20.808594 32.507812 20.808594 C 32.1875 20.808594 31.871094 20.777344 31.558594 20.714844 C 31.242188 20.652344 30.9375 20.558594 30.644531 20.4375 C 30.347656 20.316406 30.066406 20.164062 29.800781 19.988281 C 29.535156 19.808594 29.289062 19.609375 29.0625 19.382812 C 28.835938 19.15625 28.632812 18.914062 28.457031 18.648438 C 28.277344 18.382812 28.128906 18.101562 28.003906 17.808594 C 27.882812 17.511719 27.789062 17.207031 27.726562 16.894531 C 27.664062 16.582031 27.632812 16.265625 27.632812 15.945312 C 27.632812 15.628906 27.664062 15.3125 27.726562 15 C 27.789062 14.6875 27.882812 14.382812 28.003906 14.085938 C 28.128906 13.792969 28.277344 13.511719 28.457031 13.246094 C 28.632812 12.980469 28.835938 12.734375 29.0625 12.511719 C 29.289062 12.285156 29.535156 12.082031 29.800781 11.90625 C 30.066406 11.730469 30.347656 11.578125 30.644531 11.457031 C 30.9375 11.335938 31.242188 11.242188 31.558594 11.179688 C 31.871094 11.117188 32.1875 11.085938 32.507812 11.085938 C 32.828125 11.085938 33.144531 11.117188 33.460938 11.179688 C 33.773438 11.242188 34.078125 11.335938 34.375 11.457031 C 34.671875 11.578125 34.953125 11.730469 35.21875 11.90625 C 35.484375 12.082031 35.730469 12.285156 35.957031 12.511719 C 36.183594 12.734375 36.382812 12.980469 36.5625 13.246094 C 36.738281 13.511719 36.890625 13.792969 37.011719 14.085938 C 37.136719 14.382812 37.226562 14.6875 37.289062 15 C 37.351562 15.3125 37.382812 15.628906 37.382812 15.945312 Z M 37.382812 15.945312 " fill-opacity="1" fill-rule="nonzero"/></g></svg>