<?xml version="1.0" standalone="no"?>
<!DOCTYPE svg PUBLIC "-//W3C//DTD SVG 20010904//EN"
 "http://www.w3.org/TR/2001/REC-SVG-20010904/DTD/svg10.dtd">
<svg version="1.0" xmlns="http://www.w3.org/2000/svg"
 width="500.000000pt" height="500.000000pt" viewBox="0 0 500.000000 500.000000"
 preserveAspectRatio="xMidYMid meet">

<g transform="translate(0.000000,500.000000) scale(0.100000,-0.100000)"
fill="#000000" stroke="none">
<path d="M1410 3058 c0 -35 -3 -107 -7 -162 -8 -124 0 -124 74 4 65 114 105
157 154 170 21 6 126 9 238 8 l200 -3 -136 -245 c-74 -135 -138 -251 -140
-257 -4 -10 30 -13 149 -13 l154 0 145 262 c79 144 145 270 147 280 3 17 -17
18 -487 18 l-491 0 0 -62z"/>
<path d="M2616 3048 c-11 -137 -11 -248 -1 -248 6 0 32 39 59 88 109 192 108
191 389 192 114 0 207 -3 207 -7 -1 -5 -63 -120 -140 -258 l-139 -250 151 -3
c83 -1 155 1 159 5 13 13 299 533 299 544 0 5 -189 9 -489 9 l-489 0 -6 -72z"/>
<path d="M970 2400 c0 -5 14 -10 31 -10 35 0 36 5 -19 -69 l-23 -31 53 2 c43
1 46 2 16 5 -21 2 -38 7 -38 9 0 3 16 25 35 48 19 24 32 46 28 49 -10 11 -83
8 -83 -3z"/>
<path d="M1205 2353 c-14 -31 -23 -58 -20 -61 2 -3 7 3 11 12 8 21 74 23 74 1
0 -8 5 -15 10 -15 6 0 10 2 10 4 0 10 -50 116 -55 116 -3 0 -17 -25 -30 -57z
m45 1 c0 -8 -7 -14 -15 -14 -15 0 -21 21 -9 33 10 9 24 -2 24 -19z"/>
<path d="M1805 2357 c-15 -32 -24 -61 -21 -64 3 -3 8 2 12 11 8 22 60 21 73
-1 5 -10 12 -16 14 -13 3 3 -7 32 -23 65 l-28 60 -27 -58z m45 -9 c0 -5 -9 -8
-20 -8 -18 0 -19 3 -9 21 9 17 13 19 20 8 5 -8 9 -17 9 -21z"/>
<path d="M2165 2401 c-3 -6 11 -11 30 -13 l36 -3 -35 -42 c-20 -22 -36 -44
-36 -47 0 -3 21 -5 48 -4 44 1 45 2 9 5 l-38 4 35 44 c20 24 36 48 36 54 0 13
-77 15 -85 2z"/>
<path d="M2405 2357 c-15 -32 -24 -61 -21 -64 3 -3 8 2 12 11 8 22 60 21 73
-1 5 -10 12 -16 14 -13 3 3 -7 32 -23 65 l-28 60 -27 -58z m45 -9 c0 -5 -9 -8
-20 -8 -18 0 -19 3 -9 21 9 17 13 19 20 8 5 -8 9 -17 9 -21z"/>
<path d="M2621 2348 c1 -35 4 -53 6 -40 3 16 11 22 32 22 52 0 71 53 25 70
-57 22 -64 16 -63 -52z m74 32 c10 -16 -15 -40 -41 -40 -19 0 -24 5 -24 25 0
21 5 25 29 25 17 0 33 -5 36 -10z"/>
<path d="M2871 2388 c-5 -13 -16 -40 -24 -60 -9 -21 -12 -38 -8 -38 5 0 11 7
15 15 8 21 62 20 70 -1 4 -9 9 -14 12 -11 7 6 -41 117 -51 117 -3 0 -9 -10
-14 -22z m24 -46 c-22 -5 -27 1 -19 23 7 17 8 17 21 -1 12 -17 12 -19 -2 -22z"/>
<path d="M3070 2400 c0 -5 7 -10 15 -10 11 0 15 -12 15 -50 0 -27 5 -50 10
-50 6 0 10 23 10 50 0 44 3 50 21 50 11 0 17 5 14 10 -3 6 -24 10 -46 10 -21
0 -39 -4 -39 -10z"/>
<path d="M3290 2350 l0 -60 43 2 42 1 -37 4 c-30 3 -38 9 -38 24 0 15 8 19 38
20 l37 2 -35 6 c-50 9 -55 41 -6 41 20 0 36 5 36 10 0 6 -18 10 -40 10 l-40 0
0 -60z"/>
<path d="M3517 2403 c-4 -3 -6 -31 -6 -62 1 -31 4 -46 6 -33 6 29 48 30 63 1
7 -11 14 -18 17 -15 3 3 0 13 -8 22 -11 13 -11 18 -1 21 23 8 14 53 -14 63
-30 12 -48 13 -57 3z m71 -35 c3 -15 -4 -18 -32 -18 -30 0 -36 4 -36 21 0 17
5 20 32 17 22 -2 34 -9 36 -20z"/>
<path d="M3915 2353 c-14 -31 -23 -58 -20 -61 2 -3 7 3 11 12 8 21 74 23 74 1
0 -8 5 -15 10 -15 6 0 10 2 10 4 0 10 -50 116 -55 116 -3 0 -17 -25 -30 -57z
m45 1 c0 -8 -7 -14 -15 -14 -15 0 -21 21 -9 33 10 9 24 -2 24 -19z"/>
<path d="M1422 2348 l-2 -58 43 1 42 2 -35 6 c-33 6 -35 8 -41 56 l-6 50 -1
-57z"/>
<path d="M1633 2345 c0 -33 2 -45 4 -27 2 18 2 45 0 60 -2 15 -4 0 -4 -33z"/>
<path d="M3740 2345 c0 -30 5 -55 10 -55 6 0 10 25 10 55 0 30 -4 55 -10 55
-5 0 -10 -25 -10 -55z"/>
<path d="M1471 1994 c-50 -91 -91 -172 -91 -180 0 -12 75 -14 509 -14 l509 0
6 73 c11 136 11 247 1 247 -5 0 -34 -45 -64 -101 -60 -109 -111 -165 -163
-174 -18 -3 -133 -5 -255 -3 l-223 3 85 153 c47 84 85 155 85 157 0 3 -69 5
-154 5 l-154 0 -91 -166z"/>
<path d="M2756 2138 c-38 -62 -176 -318 -176 -327 0 -8 151 -11 515 -11 l515
0 0 63 c0 34 3 106 7 160 4 68 3 97 -5 97 -6 0 -35 -44 -64 -97 -59 -110 -110
-167 -158 -176 -42 -9 -480 -9 -480 -1 0 7 115 218 152 282 l20 32 -156 0
c-150 0 -156 -1 -170 -22z"/>
<path d="M1484 1516 c-14 -38 22 -74 48 -48 6 6 0 8 -16 5 -23 -5 -26 -2 -26
22 0 24 3 27 25 23 13 -3 22 -1 19 3 -8 14 -44 10 -50 -5z"/>
<path d="M1636 1522 c-3 -5 -10 -22 -16 -37 -10 -25 -9 -27 5 -15 13 11 21 11
35 2 17 -11 18 -9 8 18 -11 33 -24 45 -32 32z m18 -17 c3 -9 0 -15 -9 -15 -9
0 -12 6 -9 15 4 8 7 15 9 15 2 0 5 -7 9 -15z"/>
<path d="M1751 1495 c2 -31 3 -34 6 -12 4 22 7 26 18 17 10 -8 15 -8 21 2 6 9
11 4 15 -17 6 -28 7 -28 8 9 1 37 0 38 -17 23 -17 -15 -19 -15 -35 0 -16 16
-17 15 -16 -22z"/>
<path d="M1903 1495 c0 -22 2 -30 4 -17 2 12 2 30 0 40 -3 9 -5 -1 -4 -23z"/>
<path d="M1992 1495 c1 -32 2 -34 5 -11 l5 29 23 -29 24 -29 -1 40 c-1 29 -2
32 -5 13 l-4 -28 -24 28 -24 27 1 -40z"/>
<path d="M2141 1498 c-6 -17 -9 -34 -6 -36 3 -3 5 0 5 6 0 7 9 12 20 12 11 0
20 -5 20 -12 0 -6 2 -9 5 -6 7 7 -15 68 -25 68 -4 0 -13 -14 -19 -32z m29 2
c0 -5 -4 -10 -10 -10 -5 0 -10 5 -10 10 0 6 5 10 10 10 6 0 10 -4 10 -10z"/>
<path d="M2354 1516 c-14 -37 22 -74 47 -49 6 6 1 9 -13 9 -17 -1 -24 5 -26
23 -3 21 0 23 22 19 14 -3 23 -1 20 3 -8 14 -44 10 -50 -5z"/>
<path d="M2494 1516 c-11 -28 1 -51 25 -51 32 0 49 28 32 49 -17 20 -50 21
-57 2z m51 -21 c0 -13 -8 -21 -22 -23 -19 -3 -23 1 -23 23 0 22 4 26 23 23 14
-2 22 -10 22 -23z"/>
<path d="M2641 1525 c0 -11 45 -65 54 -65 3 0 4 17 4 38 -1 36 -2 36 -8 7 l-6
-29 -22 29 c-12 17 -22 26 -22 20z"/>
<path d="M2860 1495 c0 -32 2 -35 28 -34 23 2 24 2 5 6 -13 2 -23 8 -23 13 0
5 10 11 23 13 l22 4 -22 2 c-13 0 -23 5 -23 10 0 5 10 12 23 14 19 4 18 4 -5
6 -26 1 -28 -2 -28 -34z"/>
<path d="M2995 1519 c-4 -6 -4 -13 -1 -16 3 -4 6 -1 6 6 0 8 8 11 20 8 11 -3
20 -1 20 4 0 13 -37 11 -45 -2z"/>
<path d="M3127 1522 c6 -4 13 -21 16 -37 l4 -30 2 32 c0 17 7 34 14 36 6 3 -1
6 -18 6 -16 0 -25 -3 -18 -7z"/>
<path d="M3460 1515 c-18 -22 -1 -50 31 -50 20 0 24 5 24 30 0 23 -5 31 -21
33 -11 2 -27 -4 -34 -13z m50 -20 c0 -18 -5 -25 -19 -25 -11 0 -23 5 -26 10
-11 18 3 40 25 40 15 0 20 -7 20 -25z"/>
<path d="M3026 1484 c18 -15 18 -15 -8 -11 -15 2 -25 0 -22 -4 7 -13 42 -11
50 2 3 6 0 15 -7 20 -24 15 -34 10 -13 -7z"/>
<path d="M3348 1463 c6 -2 18 -2 25 0 6 3 1 5 -13 5 -14 0 -19 -2 -12 -5z"/>
</g>
</svg>
